<?xml version="1.0" encoding="iso-8859-1"?>
<!-- Uploaded to: SVG Repo, www.svgrepo.com, Generator: SVG Repo Mixer Tools -->
<svg height="800px" width="800px" version="1.1" id="Layer_1" xmlns="http://www.w3.org/2000/svg" xmlns:xlink="http://www.w3.org/1999/xlink" 
	 viewBox="0 0 512 512" xml:space="preserve">
<path style="fill:#F2B844;" d="M473.023,379.404H102.982c-35.347,0-50.423,22.189-50.423,57.534V448
	c0,35.347,15.078,63.999,50.423,63.999h370.04V379.404H473.023z"/>
<path style="fill:#FC675B;" d="M473.021,0v372.938l-364.507,58.392l-69.537,11.146V69.537C38.977,31.135,70.112,0,108.514,0H473.021
	z"/>
<path style="fill:#F2F2F2;" d="M429.125,372.948v88.492H64.605c-8.456,0-16.55-1.5-24.05-4.267l-0.905,0.129
	c-0.44-3.026-0.672-6.142-0.672-9.297v-11.068c0-35.35,28.653-64.003,64.003-64.003h326.144V372.948z"/>
<path style="fill:#E6E6E6;" d="M429.125,372.935v31.898H102.981c-31.394,0-57.499,22.602-62.956,52.418l-0.375,0.052
	c-0.44-3.026-0.672-6.142-0.672-9.297v-11.068c0-35.35,28.653-64.003,64.003-64.003L429.125,372.935L429.125,372.935z"/>
<polygon style="fill:#FCC447;" points="392.217,116.236 332.43,116.236 332.43,54.783 252.364,54.783 252.364,116.236 
	192.579,116.236 192.579,196.301 252.364,196.301 252.364,313.943 332.43,313.943 332.43,196.301 392.217,196.301 "/>
<g>
	<path style="fill:#E8564F;" d="M342.127,323.64h-99.461V205.998h-59.785v-99.461h59.785V45.085h99.461v61.452h59.787v99.461
		h-59.787V323.64z M262.062,304.245h60.671V186.603h59.787v-60.671h-59.787V64.48h-60.671v61.452h-59.785v60.671h59.785V304.245
		L262.062,304.245z"/>
	<path style="fill:#E8564F;" d="M102.982,392.334h370.04v-21.334H108.514V0C70.112,0,38.977,31.135,38.977,69.537l0.006,378.464
		c0,35.346,28.654,63.999,63.999,63.999h370.04v-19.395h-370.04c-24.595,0-44.604-20.009-44.604-44.604v-11.062
		C58.378,412.343,78.387,392.334,102.982,392.334z"/>
</g>
</svg>